<svg width="24" height="24" viewBox="0 0 24 24" fill="none" xmlns="http://www.w3.org/2000/svg">
<path d="M21.0664 4H2.93359C1.86526 4 1 4.87063 1 5.93359V17.5352C1 18.6044 1.87162 19.4688 2.93359 19.4688H21.0664C22.1258 19.4688 23 18.6081 23 17.5352V5.93359C23 4.87252 22.1382 4 21.0664 4ZM20.7956 5.28906L13.3673 12.6783C13.002 13.0435 12.5165 13.2446 12 13.2446C11.4835 13.2446 10.998 13.0435 10.6315 12.6771L3.20438 5.28906H20.7956ZM2.28906 17.2728V6.19678L7.85945 11.7378L2.28906 17.2728ZM3.2052 18.1797L8.77339 12.6469L9.72124 13.5898C10.3299 14.1985 11.1392 14.5337 12 14.5337C12.8608 14.5337 13.6701 14.1985 14.2776 13.591L15.2266 12.6469L20.7948 18.1797H3.2052ZM21.7109 17.2728L16.1406 11.7378L21.7109 6.19678V17.2728Z" fill="#737373"/>
</svg>
