<svg width="24" height="24" viewBox="0 0 24 24" fill="none" xmlns="http://www.w3.org/2000/svg">
<path d="M17.2 1.23389H10.8C6.97701 1.23389 5.72001 3.35189 5.38201 5.35589C3.37801 5.69389 1.26001 6.95189 1.26001 10.7739V14.7739C1.26001 19.3869 3.38001 20.3139 6.80001 20.3139L7.17001 20.3119C7.19301 20.3169 7.24101 20.3469 7.24001 20.3339L8.44001 21.9329C8.61162 22.1891 8.84369 22.3991 9.11572 22.5444C9.38775 22.6896 9.69136 22.7657 9.99974 22.7658C10.3081 22.7659 10.6118 22.69 10.8839 22.545C11.156 22.3999 11.3882 22.19 11.56 21.9339L12.8 20.3139H13.2C17.038 20.3139 18.29 18.1789 18.62 16.1909C20.623 15.8529 22.74 14.5949 22.74 10.7739V6.77389C22.74 3.14889 20.824 1.23389 17.2 1.23389ZM17.24 14.7739C17.2416 15.0031 17.2289 15.2322 17.202 15.4599C17.008 17.7479 15.735 18.8139 13.199 18.8139H12.799C12.5588 18.8145 12.3219 18.8708 12.1071 18.9784C11.8923 19.086 11.7054 19.2419 11.561 19.4339L10.359 21.0349C10.3262 21.1025 10.2749 21.1594 10.2112 21.1993C10.1475 21.2391 10.0738 21.2601 9.9987 21.26C9.92355 21.2599 9.84996 21.2387 9.78635 21.1987C9.72273 21.1587 9.67167 21.1016 9.63901 21.0339L8.43601 19.4279C8.28615 19.2426 8.09805 19.0918 7.88457 18.9858C7.67108 18.8798 7.43724 18.8212 7.19901 18.8139H6.79901C3.81901 18.8139 2.75901 18.2039 2.75901 14.7739V10.7739C2.75901 8.23889 3.82501 6.96689 6.14401 6.76789C6.36176 6.74296 6.58085 6.73161 6.80001 6.73389H13.2C15.994 6.73389 17.24 7.97989 17.24 10.7739V14.7739ZM21.24 10.7739C21.24 12.9689 20.44 14.2169 18.74 14.6399V10.7739C18.74 7.14889 16.824 5.23389 13.2 5.23389H6.93301C7.35401 3.53389 8.60301 2.73389 10.799 2.73389H17.199C19.993 2.73389 21.239 3.97989 21.239 6.77389L21.24 10.7739ZM11.001 13.1759C11.0013 13.3071 10.9757 13.4371 10.9256 13.5584C10.8756 13.6797 10.8021 13.79 10.7094 13.8829C10.6167 13.9758 10.5066 14.0494 10.3854 14.0997C10.2642 14.15 10.1342 14.1759 10.003 14.1759H9.99901C9.80131 14.1755 9.60817 14.1165 9.44398 14.0064C9.2798 13.8963 9.15194 13.7399 9.07656 13.5572C9.00118 13.3744 8.98166 13.1734 9.02047 12.9796C9.05928 12.7857 9.15468 12.6077 9.29461 12.4681C9.43454 12.3284 9.61273 12.2334 9.80665 12.195C10.0006 12.1565 10.2015 12.1765 10.3842 12.2522C10.5668 12.3279 10.7228 12.4561 10.8326 12.6205C10.9424 12.7849 11.001 12.9782 11.001 13.1759ZM14.198 13.1759C14.1983 13.3071 14.1727 13.4371 14.1226 13.5584C14.0726 13.6797 13.9991 13.79 13.9064 13.8829C13.8137 13.9758 13.7036 14.0494 13.5824 14.0997C13.4612 14.15 13.3312 14.1759 13.2 14.1759H13.195C12.9974 14.1753 12.8043 14.1161 12.6403 14.0059C12.4762 13.8957 12.3485 13.7393 12.2733 13.5565C12.198 13.3737 12.1787 13.1727 12.2176 12.979C12.2565 12.7852 12.352 12.6073 12.492 12.4677C12.6319 12.3282 12.8101 12.2332 13.004 12.1949C13.1979 12.1565 13.3988 12.1765 13.5814 12.2523C13.7639 12.3281 13.9199 12.4562 14.0297 12.6206C14.1394 12.785 14.198 12.9782 14.198 13.1759ZM7.80501 13.1759C7.80527 13.3071 7.77965 13.4371 7.72962 13.5584C7.67958 13.6797 7.60611 13.79 7.51341 13.8829C7.42071 13.9758 7.3106 14.0494 7.18939 14.0997C7.06818 14.15 6.93824 14.1759 6.80701 14.1759H6.80301C6.60531 14.1755 6.41217 14.1165 6.24799 14.0064C6.0838 13.8963 5.95594 13.7399 5.88056 13.5572C5.80518 13.3744 5.78566 13.1734 5.82447 12.9796C5.86328 12.7857 5.95868 12.6077 6.09861 12.4681C6.23854 12.3284 6.41673 12.2334 6.61065 12.195C6.80458 12.1565 7.00554 12.1765 7.18815 12.2522C7.37076 12.3279 7.52682 12.4561 7.63662 12.6205C7.74641 12.7849 7.80501 12.9782 7.80501 13.1759Z" fill="#474747"/>
</svg>
